<?xml version="1.0" standalone="no"?>
<!DOCTYPE svg
          PUBLIC "-//W3C//DTD SVG 20010904//EN" "http://www.w3.org/TR/2001/REC-SVG-20010904/DTD/svg10.dtd">
<svg version="1.0"
     xmlns="http://www.w3.org/2000/svg"
     width="3055.000000pt"
     height="3055.000000pt"
     viewBox="0 0 3055.000000 3055.000000"
     preserveAspectRatio="xMidYMid meet">
  <g transform="translate(0.000000,3055.000000) scale(0.100000,-0.100000)"
     fill="#be223a"
     stroke="none">
    <path d="M15130 28512 c-8 -15 -19 -34 -26 -42 -6 -8 -24 -40 -40 -70 -15 -30
-33 -62 -40 -70 -6 -8 -24 -40 -40 -70 -16 -30 -36 -66 -45 -80 -15 -23 -181
-314 -212 -371 -7 -13 -19 -35 -28 -49 -14 -21 -57 -97 -178 -312 -12 -21 -29
-53 -40 -70 -30 -53 -223 -390 -240 -421 -9 -16 -21 -36 -26 -45 -6 -9 -73
-127 -150 -262 -77 -135 -145 -254 -152 -265 -7 -11 -15 -27 -20 -35 -4 -8
-37 -68 -75 -132 -37 -65 -68 -120 -68 -122 0 -3 -17 -33 -39 -68 -31 -50
-473 -825 -515 -903 -6 -11 -19 -31 -27 -45 -9 -14 -150 -261 -314 -550 -164
-289 -306 -537 -316 -552 -11 -15 -19 -29 -19 -32 0 -3 -24 -47 -54 -98 -48
-83 -540 -945 -604 -1058 -14 -25 -50 -88 -80 -140 -30 -52 -63 -108 -72 -125
-24 -43 -310 -544 -330 -580 -40 -69 -94 -163 -120 -210 -16 -27 -58 -101 -94
-164 -36 -62 -66 -115 -66 -117 0 -2 -17 -32 -38 -66 -21 -35 -55 -92 -74
-128 -20 -36 -66 -116 -102 -179 -36 -62 -66 -115 -66 -116 0 -1 -28 -51 -63
-111 -35 -60 -66 -116 -70 -124 -4 -8 -15 -28 -26 -45 -10 -16 -28 -48 -41
-70 -12 -22 -69 -121 -125 -220 -57 -99 -112 -196 -122 -215 -11 -19 -64 -111
-118 -205 -54 -93 -112 -195 -128 -225 -16 -30 -33 -59 -37 -65 -4 -5 -19 -30
-32 -55 -14 -25 -57 -101 -97 -169 -39 -68 -71 -124 -71 -126 0 -1 -29 -52
-64 -113 -36 -61 -76 -131 -89 -154 -13 -24 -61 -107 -105 -185 -108 -188
-233 -407 -264 -463 -14 -25 -97 -169 -183 -320 -87 -151 -168 -293 -180 -316
-13 -22 -76 -133 -140 -245 -65 -112 -127 -220 -138 -239 -10 -19 -166 -291
-345 -605 -179 -313 -334 -586 -344 -605 -11 -19 -27 -48 -37 -65 -18 -31
-811 -1420 -849 -1487 -12 -20 -32 -55 -46 -77 -15 -22 -26 -43 -26 -46 0 -4
-74 -134 -100 -175 -5 -8 -18 -31 -28 -50 -11 -19 -84 -147 -162 -285 -143
-249 -163 -284 -205 -360 -13 -22 -46 -80 -74 -128 -28 -49 -51 -90 -51 -93 0
-2 -16 -28 -35 -58 -19 -30 -35 -58 -35 -61 0 -3 -16 -30 -35 -60 -19 -30 -33
-55 -30 -55 3 0 -10 -24 -29 -52 -18 -29 -50 -84 -71 -123 -21 -38 -44 -77
-51 -86 -8 -8 -14 -19 -14 -22 0 -8 -217 -391 -286 -505 -24 -40 -44 -74 -44
-76 0 -2 -25 -48 -56 -102 -136 -238 -217 -379 -296 -519 -192 -337 -228 -401
-238 -415 -5 -8 -24 -42 -43 -75 -58 -101 -71 -124 -177 -310 -57 -99 -150
-262 -207 -363 -56 -100 -114 -200 -128 -222 -14 -22 -25 -41 -25 -44 0 -2
-32 -58 -70 -125 -39 -66 -70 -125 -70 -131 0 -5 -4 -10 -10 -10 -5 0 -10 -4
-10 -9 0 -9 -25 -52 -204 -363 -53 -92 -96 -170 -96 -174 0 -3 -8 -18 -19 -32
-10 -15 -30 -48 -43 -73 -14 -25 -143 -250 -285 -500 -143 -250 -271 -474
-285 -499 -78 -138 -299 -527 -307 -540 -6 -8 -61 -105 -124 -215 -97 -170
-168 -294 -257 -450 -10 -16 -71 -124 -137 -240 -124 -218 -477 -836 -509
-892 -23 -38 -319 -557 -353 -616 -13 -23 -125 -220 -249 -437 -124 -217 -236
-415 -250 -439 -14 -25 -38 -67 -53 -93 -16 -27 -29 -53 -29 -58 0 -6 -4 -10
-9 -10 -5 0 -14 -12 -20 -28 -6 -15 -21 -45 -34 -67 -36 -59 -317 -552 -415
-725 -14 -25 -86 -151 -160 -280 -74 -129 -146 -255 -160 -280 -31 -55 -41
-73 -131 -229 -39 -68 -71 -125 -71 -126 0 -2 -36 -64 -80 -140 -44 -76 -80
-139 -80 -140 0 -2 -21 -39 -46 -82 -26 -43 -58 -97 -71 -120 l-24 -43 1073 5
c590 3 1516 7 2058 10 972 5 1958 10 3995 20 2207 11 3156 15 4150 21 567 3
1207 6 1424 7 l393 2 60 105 c33 58 77 134 98 170 38 66 147 256 183 320 10
19 36 64 57 100 20 36 49 85 62 110 14 25 150 263 303 530 153 267 305 535
340 595 34 61 81 142 103 182 23 39 50 87 60 105 28 49 519 909 718 1256 96
167 174 307 174 310 0 4 -111 6 -247 5 -137 0 -835 -4 -1553 -8 -718 -3 -1663
-8 -2100 -10 -437 -2 -1348 -7 -2025 -10 -676 -3 -1582 -8 -2013 -10 l-782 -4
28 52 c35 63 42 76 172 302 57 99 114 200 128 225 14 25 42 74 64 109 21 34
38 65 38 67 0 2 52 95 117 206 64 112 124 218 135 236 10 18 37 66 59 105 23
40 53 92 67 117 14 25 59 104 100 175 41 72 88 155 105 185 17 30 50 88 74
128 24 41 43 75 43 77 0 3 25 45 55 96 30 50 55 93 55 94 0 2 58 105 130 230
9 17 72 127 140 245 67 118 166 292 220 385 53 94 108 190 122 215 14 25 177
311 363 635 185 325 350 613 365 640 15 28 51 90 79 138 28 49 51 93 51 98 0
5 5 9 10 9 6 0 10 4 10 9 0 5 268 479 596 1053 328 573 606 1061 618 1083 13
22 159 279 326 570 167 292 313 548 325 570 18 32 149 261 276 483 11 17 29
49 40 70 12 20 96 168 187 327 91 160 176 310 190 335 14 25 28 50 32 55 4 6
19 30 32 55 14 25 107 189 208 365 101 176 194 340 208 364 13 24 67 119 119
210 53 91 107 186 121 211 13 25 28 50 32 55 4 6 21 35 37 65 16 30 56 100 88
155 32 55 69 120 83 145 14 25 77 135 140 245 63 110 126 220 140 245 21 38
423 742 485 850 11 19 31 55 45 80 35 62 49 87 131 228 39 68 71 126 71 128 0
2 16 28 35 58 19 30 35 57 35 60 0 3 18 35 40 71 22 36 40 67 40 70 0 2 13 26
29 53 15 26 40 68 53 93 14 24 69 121 123 214 54 94 111 195 128 225 17 30 41
72 54 92 13 21 23 39 23 42 0 2 29 53 64 114 36 61 76 131 89 154 13 24 124
219 247 433 122 215 231 406 242 425 11 19 29 51 40 70 24 42 577 1010 604
1059 11 18 24 41 29 50 6 9 37 63 70 121 33 58 64 113 70 122 5 9 19 34 31 55
12 21 130 229 264 463 134 234 251 441 262 460 11 19 29 51 40 70 20 35 201
350 243 425 13 22 130 227 260 455 131 228 250 438 265 465 16 28 62 108 102
179 l74 130 -66 110 c-37 61 -131 222 -211 359 -79 136 -151 260 -160 275 -32
55 -204 350 -271 466 -37 65 -77 131 -88 146 -11 16 -20 31 -20 34 0 3 -14 29
-31 58 -79 132 -229 391 -229 395 0 2 -15 27 -34 56 -27 41 -182 306 -342 584
-11 18 -100 171 -199 340 -99 170 -187 320 -195 334 -70 121 -102 176 -110
189 -25 39 -120 201 -120 204 0 1 -29 51 -63 109 l-64 107 -13 -28z" />
    <path d="M19434 20808 c-60 -105 -110 -198 -112 -205 -2 -7 -7 -13 -10 -13 -4
0 -14 -15 -21 -32 -8 -18 -22 -44 -31 -58 -10 -14 -58 -97 -108 -185 -49 -88
-99 -176 -111 -195 -11 -19 -43 -75 -71 -125 -27 -49 -63 -112 -80 -140 -16
-27 -37 -63 -46 -80 -9 -16 -126 -221 -259 -455 -235 -412 -261 -458 -306
-537 -12 -21 -64 -111 -115 -201 -52 -89 -94 -164 -94 -167 0 -2 -17 -32 -38
-67 -36 -58 -163 -280 -194 -338 -7 -14 -26 -44 -41 -67 -15 -24 -27 -45 -27
-47 0 -3 -141 -251 -313 -553 -173 -301 -325 -568 -339 -593 -14 -25 -106
-187 -205 -360 -99 -173 -227 -396 -283 -495 -57 -99 -111 -195 -121 -212 -11
-18 -27 -48 -38 -65 -10 -18 -55 -98 -101 -178 -46 -80 -100 -174 -120 -210
-20 -36 -46 -81 -57 -100 -11 -19 -50 -89 -88 -155 -37 -66 -91 -160 -120
-210 -40 -68 -475 -830 -607 -1062 -10 -18 -27 -48 -37 -67 -11 -18 -74 -129
-141 -246 -67 -117 -131 -229 -142 -249 -11 -20 -37 -65 -58 -101 -37 -63 -55
-95 -108 -190 -14 -25 -58 -101 -97 -170 -39 -69 -83 -145 -97 -170 -14 -25
-70 -121 -123 -215 -54 -93 -112 -195 -128 -225 -17 -30 -41 -72 -54 -92 -13
-21 -23 -40 -23 -43 0 -2 -16 -29 -35 -59 -19 -30 -35 -57 -35 -60 0 -3 -13
-27 -29 -54 -34 -59 -72 -125 -97 -172 -11 -19 -21 -37 -24 -40 -5 -5 -14 -20
-58 -99 -14 -25 -124 -219 -245 -431 -219 -382 -267 -467 -287 -505 -6 -11
-20 -36 -31 -55 -35 -58 -181 -312 -204 -355 -12 -22 -81 -142 -152 -266
l-130 -227 346 3 c1214 12 1739 17 2061 20 201 2 653 7 1005 10 352 4 713 7
802 8 l163 2 69 120 c253 441 551 967 551 972 0 4 6 14 14 22 7 9 27 41 43 71
16 30 42 74 56 97 15 24 27 44 27 46 0 3 50 92 111 198 62 107 123 214 137
239 35 63 50 88 131 228 39 68 71 126 71 128 0 2 25 44 55 95 30 50 55 93 55
95 0 2 20 38 45 80 25 41 45 77 45 78 0 3 166 294 180 316 5 8 17 29 26 45 9
17 134 235 277 485 143 250 270 473 282 495 55 99 359 633 374 655 8 14 24 40
34 59 11 19 127 224 259 455 132 232 248 435 257 451 9 17 24 41 32 55 9 14
186 324 394 690 207 366 386 677 396 692 11 15 19 29 19 32 0 2 59 107 131
232 72 126 144 253 161 283 16 29 45 79 63 110 18 31 30 61 25 66 -4 6 -19 30
-32 55 -14 25 -65 113 -113 195 -48 83 -97 166 -109 186 -11 20 -73 125 -136
233 -63 108 -119 204 -125 214 -5 10 -38 65 -72 122 -33 58 -195 335 -359 615
-278 478 -392 672 -421 720 -7 11 -16 27 -20 35 -4 8 -40 71 -81 140 -41 69
-84 143 -96 165 -13 22 -78 135 -146 250 -68 116 -138 235 -155 265 -18 30
-79 135 -136 233 -57 97 -108 185 -114 195 -5 9 -25 43 -43 75 -19 31 -34 57
-36 57 -1 0 -51 -86 -112 -192z" />
    <path d="M23934 13442 c-6 -9 -26 -44 -44 -77 -18 -33 -36 -64 -40 -70 -4 -5
-21 -35 -38 -65 -29 -54 -123 -220 -141 -250 -5 -8 -67 -116 -138 -240 -70
-123 -132 -232 -138 -242 -5 -9 -20 -34 -31 -55 -12 -21 -30 -54 -41 -73 -134
-233 -912 -1595 -929 -1625 -42 -78 -404 -710 -414 -725 -6 -8 -13 -22 -17
-30 -4 -8 -45 -80 -91 -159 -46 -80 -81 -152 -79 -161 2 -9 83 -151 179 -316
97 -164 186 -317 198 -339 12 -22 26 -44 30 -50 4 -5 17 -27 29 -47 12 -21 31
-55 42 -75 12 -21 76 -130 142 -243 66 -113 132 -225 146 -250 14 -26 76 -130
136 -233 61 -103 121 -207 135 -230 14 -24 76 -131 138 -238 62 -107 117 -201
123 -209 57 -94 159 -273 159 -280 0 -6 5 -10 10 -10 6 0 10 -4 10 -10 0 -5
51 -96 114 -202 109 -186 275 -470 314 -540 11 -18 54 -91 96 -162 42 -70 76
-130 76 -132 0 -5 75 -128 102 -166 18 -26 18 -28 1 -29 -31 -1 -1047 -7
-2478 -14 -759 -3 -1491 -7 -1627 -8 l-246 -1 -354 -619 c-419 -734 -388 -680
-422 -742 -16 -27 -43 -75 -61 -105 -55 -93 -185 -321 -185 -325 0 -2 -21 -39
-46 -82 -25 -43 -49 -85 -54 -93 -5 -8 -240 -421 -524 -917 -284 -497 -516
-904 -516 -905 0 -2 71 -2 157 -2 87 1 781 5 1543 8 762 4 1750 9 2195 11 446
2 1352 7 2015 10 663 3 1585 8 2050 10 465 2 1392 7 2060 10 668 4 1503 8
1855 10 352 2 769 4 927 4 l288 1 -27 47 c-14 27 -29 53 -33 58 -4 6 -17 26
-28 45 -10 19 -144 249 -297 510 -153 261 -285 489 -295 505 -9 17 -136 233
-280 480 -145 248 -271 464 -280 480 -15 26 -155 264 -207 353 -41 69 -117
200 -141 242 -14 25 -42 72 -62 105 -20 34 -40 68 -44 75 -4 8 -12 24 -19 35
-7 11 -50 86 -96 165 -110 189 -199 341 -211 360 -13 22 -231 395 -259 444
-82 143 -239 411 -272 463 -22 34 -39 65 -39 67 0 3 -20 38 -43 78 -160 269
-207 349 -207 352 0 3 -22 41 -50 86 -27 45 -50 83 -50 85 0 2 -40 70 -88 152
-49 81 -106 179 -128 216 -21 38 -46 81 -55 95 -9 15 -27 47 -41 72 -14 25
-132 227 -263 450 -130 223 -247 423 -260 445 -27 49 -391 674 -404 695 -15
25 -465 793 -477 815 -27 49 -779 1333 -800 1367 -14 22 -29 49 -34 61 -11 23
-32 59 -40 67 -3 3 -11 16 -18 30 -7 14 -21 40 -32 58 -11 17 -29 47 -40 65
-11 17 -25 43 -32 57 -7 14 -34 60 -60 103 -27 43 -48 80 -48 83 0 2 -16 28
-35 58 -19 30 -35 58 -35 61 0 3 -11 22 -24 43 -13 20 -62 102 -108 182 -175
299 -482 826 -493 845 -5 11 -18 31 -26 45 -9 14 -38 62 -64 108 -27 46 -51
85 -55 87 -3 2 -11 -4 -16 -13z" />
  </g>
</svg>